<svg xmlns="http://www.w3.org/2000/svg" viewBox="0 0 512 512" role="img" aria-labelledby="title desc">
  <title id="title">Ícone de SAXS</title>
  <desc id="desc">Feixe incidente atravessa amostra e gera espalhamento em pequeno ângulo detectado em arco.</desc>
  <rect width="512" height="512" fill="#F5F3EF"></rect>
  <g fill="none" stroke="#1F3D34" stroke-width="14" stroke-linecap="round" stroke-linejoin="round">
    <path d="M86 256h115"></path>
    <path d="M180 236l21 20l-21 20"></path>
    <rect x="222" y="203" width="16" height="106" rx="4"></rect>
    <path d="M392 135c31 79 31 163 0 242"></path>
  </g>
  <g fill="none" stroke="#8A987F" stroke-width="10" stroke-linecap="round" stroke-dasharray="1 19">
    <path d="M240 256h135"></path>
    <path d="M240 256l128-80"></path>
    <path d="M240 256l128 80"></path>
    <path d="M240 256l136-38"></path>
    <path d="M240 256l136 38"></path>
  </g>
  <g fill="#1F3D34">
    <circle cx="385" cy="176" r="13"></circle>
    <circle cx="398" cy="218" r="13"></circle>
    <circle cx="406" cy="256" r="13"></circle>
    <circle cx="398" cy="294" r="13"></circle>
    <circle cx="385" cy="336" r="13"></circle>
  </g>
  <g fill="#8A987F">
    <circle cx="248" cy="240" r="5"></circle>
    <circle cx="252" cy="256" r="5"></circle>
    <circle cx="248" cy="272" r="5"></circle>
    <circle cx="260" cy="249" r="4"></circle>
    <circle cx="260" cy="263" r="4"></circle>
  </g>
</svg>